<?xml version="1.0" standalone="no"?><!DOCTYPE svg PUBLIC "-//W3C//DTD SVG 1.1//EN" "http://www.w3.org/Graphics/SVG/1.1/DTD/svg11.dtd"><svg viewBox="0 0 1024 1024" version="1.1" xmlns="http://www.w3.org/2000/svg" xmlns:xlink="http://www.w3.org/1999/xlink" width="64" height="64"><path d="M553.984 708.608H337.92c-19.456 0-35.84-16.384-35.84-35.84V471.04c0-19.456 16.384-35.84 35.84-35.84h216.064c19.456 0 35.84 16.384 35.84 35.84v201.728c0 20.48-16.384 35.84-35.84 35.84zM337.92 453.632c-9.216 0-17.408 8.192-17.408 17.408v201.728c0 9.216 8.192 17.408 17.408 17.408h216.064c9.216 0 17.408-8.192 17.408-17.408V471.04c0-9.216-8.192-17.408-17.408-17.408H337.92zM312.32 745.472h-11.264c-17.408 0-30.72-14.336-30.72-31.744v-15.36h18.432v15.36c0 7.168 6.144 12.288 12.288 12.288h11.264v19.456zM288.768 444.416h-18.432V430.08c0-17.408 14.336-31.744 30.72-31.744h11.264v18.432h-11.264c-7.168 0-12.288 6.144-12.288 12.288v15.36zM591.872 745.472h-11.264V727.04h11.264c7.168 0 12.288-6.144 12.288-12.288v-15.36h18.432v15.36c0 17.408-13.312 30.72-30.72 30.72z" fill="#000000"/><path d="M382.976 566.272c-20.48 0-36.864-16.384-36.864-36.864s16.384-36.864 36.864-36.864 36.864 16.384 36.864 36.864c1.024 20.48-16.384 36.864-36.864 36.864z m0-55.296c-10.24 0-18.432 8.192-18.432 18.432s8.192 18.432 18.432 18.432 18.432-8.192 18.432-18.432c1.024-10.24-8.192-18.432-18.432-18.432zM356.352 706.56l-13.312-14.336L489.472 563.2l97.28 79.872-12.288 14.336-84.992-69.632z" fill="#000000"/><path d="M714.752 551.936H614.4v-18.432h100.352c6.144 0 10.24-5.12 10.24-10.24V307.2c0-6.144-5.12-10.24-10.24-10.24H484.352c-6.144 0-10.24 5.12-10.24 10.24v104.448h-18.432V307.2c0-16.384 13.312-28.672 28.672-28.672h229.376c16.384 0 28.672 13.312 28.672 28.672v215.04c1.024 16.384-12.288 29.696-27.648 29.696z" fill="#000000"/><path d="M519.168 331.776h160.768v18.432H519.168zM519.168 386.048h160.768v18.432H519.168zM616.448 438.272h63.488v18.432h-63.488z" fill="#000000"/></svg>
