<?xml version="1.0" standalone="no"?><!DOCTYPE svg PUBLIC "-//W3C//DTD SVG 1.1//EN" "http://www.w3.org/Graphics/SVG/1.1/DTD/svg11.dtd"><svg viewBox="0 0 1024 1024" version="1.1" xmlns="http://www.w3.org/2000/svg" xmlns:xlink="http://www.w3.org/1999/xlink" width="64" height="64"><path d="M378.624 709.1712l88.1152-103.7824-71.2704-145.8688c-7.8336-16.0768-29.6448-18.8416-41.216-5.1712l-227.7376 268.3392c-13.6704 16.128-2.2016 40.8576 18.944 40.8576h258.3552c-28.16 0-43.4176-32.9216-25.1904-54.3744z" fill="#94C5FF"/><path d="M962.9696 835.2256H60.9792c-16.9472 0-30.72 13.7728-30.72 30.72s13.7728 30.72 30.72 30.72h901.9904c16.9472 0 30.72-13.7728 30.72-30.72s-13.7216-30.72-30.72-30.72zM145.4592 794.2656h735.5392c22.1184 0 42.3424-11.2128 54.0672-29.952 11.7248-18.7904 12.9536-41.8304 3.2256-61.7472l-174.2848-356.8128a63.5648 63.5648 0 0 0-49.3056-35.2768c-21.4528-2.6624-42.5472 5.5296-56.5248 21.9648l-184.3712 217.2416-50.6368-103.6288c-8.2432-16.896-24.32-28.416-43.008-30.72-18.6368-2.3552-37.0688 4.8128-49.2544 19.1488l-227.7376 268.3392c-14.1824 16.6912-17.2544 39.424-8.0384 59.2896 9.1136 19.8144 28.416 32.1536 50.3296 32.1536zM704.9216 372.224c0.256-0.3072 0.8192-0.9728 2.048-0.8192 1.2288 0.1536 1.5872 0.9216 1.792 1.28l174.2848 356.8128c0.2048 0.4096 0.5632 1.1264-0.1024 2.2016s-1.4848 1.0752-1.9456 1.0752h-477.184c-0.6656 0-1.4848 0-2.048-1.3312-0.6144-1.3312-0.1024-1.9456 0.3072-2.4576l88.1152-103.7824 214.7328-252.9792zM371.8656 481.1264l58.4704 119.7056-75.1104 88.4736c-1.1776 1.4336-2.304 2.8672-3.3792 4.352l-0.9216 1.3824c-0.7168 1.0752-1.4336 2.2016-2.0992 3.328-0.3072 0.512-0.5632 0.9728-0.8704 1.4848-0.7168 1.3312-1.4336 2.6624-2.048 4.0448-0.1024 0.256-0.256 0.512-0.3584 0.768-0.7168 1.6384-1.3824 3.2768-1.9456 4.9152-0.1536 0.4608-0.3072 0.8704-0.4096 1.3312-0.4096 1.28-0.768 2.5088-1.1264 3.7888-0.1536 0.512-0.256 1.0752-0.4096 1.5872-0.3072 1.3312-0.5632 2.6624-0.768 4.0448-0.0512 0.4096-0.1536 0.8192-0.2048 1.1776-0.256 1.7408-0.4096 3.4816-0.512 5.2224 0 0.3584 0 0.768-0.0512 1.1264-0.0512 1.3824-0.0512 2.7648-0.0512 4.1472v0.768H158.1568l213.7088-251.648z" fill="#3B9BFF"/><path d="M476.1088 378.4704c66.6112 0 120.7808-54.1696 120.7808-120.7808S542.72 136.9088 476.1088 136.9088s-120.832 54.1696-120.832 120.7296 54.2208 120.832 120.832 120.832z m0-180.1728c32.7168 0 59.3408 26.624 59.3408 59.3408s-26.624 59.3408-59.3408 59.3408-59.3408-26.624-59.3408-59.3408c-0.0512-32.7168 26.5728-59.3408 59.3408-59.3408z" fill="#FCD34D"/></svg>
